<svg id="Layer_1_1_" enable-background="new 0 0 64 64" height="512" viewBox="0 0 64 64" width="512" xmlns="http://www.w3.org/2000/svg"><path d="m49 2c-7.168 0-13 5.832-13 13 0 5.772 3.784 10.672 9 12.364v11.636c0 2.206 1.794 4 4 4s4-1.794 4-4v-11.636c5.216-1.692 9-6.591 9-12.364 0-7.168-5.832-13-13-13zm0 39c-1.103 0-2-.897-2-2v-7h4v7c0 1.103-.897 2-2 2zm2-11h-4v-2.17c.654.102 1.318.17 2 .17s1.346-.069 2-.17zm-2-4c-6.065 0-11-4.935-11-11s4.935-11 11-11 11 4.935 11 11-4.935 11-11 11z"/><path d="m49.395 10c.885 0 1.605.72 1.605 1.605 0 .538-.267 1.038-.715 1.336l-1.84 1.227c-.278.186-.445.498-.445.832v2h2v-1.465l1.395-.93c1.005-.671 1.605-1.792 1.605-3 0-1.988-1.617-3.605-3.605-3.605h-.789c-1.989 0-3.606 1.617-3.606 3.605h2c0-.885.72-1.605 1.605-1.605z"/><path d="m48 19h2v2h-2z"/><path d="m51 45v9h-33c-.552 0-1 .448-1 1v1c0 2.206-1.794 4-4 4s-4-1.794-4-4v-8h-2v8c0 3.309 2.691 6 6 6h39c3.86 0 7-3.14 7-7 0-.552-.448-1-1-1h-5v-9zm1 15h-34.532c.952-1.062 1.532-2.465 1.532-4h37.899c-.464 2.279-2.484 4-4.899 4z"/><path d="m3 4c2.206 0 4 1.794 4 4v29h2v-29c0-1.535-.58-2.938-1.532-4h32.532v-2h-37c-.552 0-1 .448-1 1s.448 1 1 1z"/><path d="m41.925 26.457-6.232 9.632c-.224-.054-.454-.089-.693-.089-.723 0-1.379.268-1.897.695l-10.163-6.097c.039-.194.06-.393.06-.598 0-1.654-1.346-3-3-3s-3 1.346-3 3c0 .462.113.894.301 1.285l-9.008 9.008.026.026c-.4-.198-.844-.319-1.319-.319-1.654 0-3 1.346-3 3s1.346 3 3 3 3-1.346 3-3c0-.475-.121-.919-.319-1.319l.026.026 9.008-9.008c.391.188.823.301 1.285.301.723 0 1.379-.268 1.897-.695l10.163 6.098c-.039.193-.06.392-.06.597 0 1.654 1.346 3 3 3s3-1.346 3-3c0-.687-.241-1.313-.632-1.82l6.236-9.637zm-34.925 17.543c-.551 0-1-.449-1-1s.449-1 1-1 1 .449 1 1-.449 1-1 1zm13-13c-.551 0-1-.449-1-1s.449-1 1-1 1 .449 1 1-.449 1-1 1zm15 9c-.551 0-1-.449-1-1s.449-1 1-1 1 .449 1 1-.449 1-1 1z"/><path d="m13 10h20v2h-20z"/><path d="m13 15h20v2h-20z"/><path d="m13 20h20v2h-20z"/><path d="m13 46h34v2h-34z"/><path d="m49 5v2c4.411 0 8 3.589 8 8s-3.589 8-8 8v2c5.514 0 10-4.486 10-10s-4.486-10-10-10z"/><path d="m16 50h4v2h-4z"/><path d="m28 50h4v2h-4z"/><path d="m40 50h4v2h-4z"/></svg>